<svg id="Layer_1" data-name="Layer 1" xmlns="http://www.w3.org/2000/svg" viewBox="0 0 640.82 462.92"><defs><style>.cls-1{fill:#dcd5a7;}.cls-2{fill:#f89528;}.cls-3{fill:#3c74b2;}</style></defs><title>FlexplotLogo</title><rect class="cls-1" x="387.87" width="112.57" height="395.29"/><rect class="cls-1" x="246.51" y="81.68" width="113.61" height="313.61"/><rect class="cls-1" x="106.72" y="153.93" width="112.04" height="241.36"/><g id="Orange"><path class="cls-2" d="M80.21,517c1.11-3.65-.06-8,1.86-12.09,1.22-2.61,1.18-5.78,2-8.61.94-3.26,2.12-6.47,3.36-9.64,1.34-3.41,2.74-6.81,4.35-10.1s3.37-6.35,5.23-9.42a155.34,155.34,0,0,1,21.81-28.51c7.36-7.5,14.61-15.11,22.17-22.39,6.39-6.14,13.11-11.93,19.78-17.76,4.28-3.74,8.62-7.43,13.12-10.89,6.07-4.64,12.32-9.05,18.5-13.54,4.35-3.16,8.67-6.37,13.09-9.42q7.46-5.15,15.08-10c5.82-3.74,11.72-7.36,17.61-11,4.57-2.83,9.13-5.69,13.78-8.4,5-2.94,10.13-5.78,15.24-8.58,6.28-3.45,12.56-6.89,18.92-10.19,5.6-2.9,11.32-5.58,17-8.37,3.56-1.76,7.06-3.6,10.65-5.27,6.26-2.91,12.56-5.73,18.85-8.58s12.78-5.84,19.21-8.66c4.27-1.87,8.64-3.52,12.93-5.35,2.31-1,4.55-2.18,6.83-3.24,3-1.4,6-2.8,9-4.15,3.85-1.72,7.74-3.37,11.6-5.09,3.27-1.46,6.56-2.89,9.78-4.46s6.4-3.31,9.6-5c5.33-2.81,10.67-5.61,16-8.45,4.58-2.45,9.14-4.94,13.7-7.43,4.27-2.33,8.58-4.59,12.76-7.06,4.63-2.74,9.13-5.72,13.72-8.53,3.76-2.3,7.6-4.47,11.36-6.76,1.92-1.16,3.75-2.47,5.61-3.72,5.61-3.74,11.31-7.38,16.82-11.27,10.07-7.1,20.16-14.21,30-21.61,7.8-5.86,15.34-12.08,22.87-18.28,6.34-5.22,12.52-10.66,18.77-16,6.05-5.17,12.17-10.26,18.12-15.55,2.49-2.22,4.52-5,6.93-7.27A148.06,148.06,0,0,0,615,106.89c3.37-4.58,6.91-9,10.24-13.64,1.78-2.46,3.22-5.16,4.93-7.68s3.58-4.95,5.32-7.45a24.9,24.9,0,0,1,1.77-2.92,6.88,6.88,0,0,1,2.65-1.6,8.33,8.33,0,0,1,9.18,2.06,2.59,2.59,0,0,1,.65,2.1c-1.47,3.32-3.2,6.53-4.72,9.84-1.73,3.8-4.9,6.45-7.45,9.6-1.76,2.17-3.57,4.31-5.28,6.52-2.88,3.71-5.71,7.46-8.54,11.2s-5.59,7.55-8.47,11.25c-2.28,2.92-4.55,5.86-7.09,8.54-8.92,9.42-17.81,18.88-27,28-5.26,5.22-11,10-16.69,14.72-6.65,5.56-13.35,11.05-20.24,16.3-7.31,5.57-14.85,10.82-22.3,16.2-3.63,2.63-7.23,5.31-10.93,7.85-5.41,3.7-10.89,7.3-16.35,10.93s-10.91,7.35-16.46,10.88c-6.37,4-12.82,8-19.27,11.89-6.66,4.06-13.33,8.1-20.05,12.06-3.65,2.15-7.41,4.11-11.12,6.16-4.4,2.44-8.77,4.93-13.21,7.29-5.16,2.76-10.39,5.37-15.55,8.1-4.52,2.4-9,4.91-13.47,7.31-3.48,1.86-7,3.55-10.5,5.43-4.1,2.24-8.1,4.65-12.19,6.89-3.14,1.71-6.38,3.24-9.55,4.89q-5.39,2.81-10.75,5.67c-4.21,2.26-8.4,4.56-12.59,6.84-6.16,3.33-12.3,6.69-18.48,10-4.67,2.48-9.44,4.77-14.07,7.29-4.89,2.67-9.66,5.55-14.51,8.3-5,2.83-10.07,5.55-15.05,8.43-3.34,1.92-6.56,4.06-9.86,6.05s-6.49,3.81-9.71,5.75c-4.94,3-9.92,5.9-14.79,9-7.34,4.67-14.61,9.46-21.9,14.2-5.89,3.83-11.92,7.46-17.62,11.54-9,6.46-18,13-26.63,19.94-8.22,6.65-16,13.88-23.88,20.9-2.58,2.28-5.13,4.61-7.54,7.07a147.35,147.35,0,0,0-16.81,20.55A124.21,124.21,0,0,0,107.72,491c-1.37,3.16-3.14,6.17-3.94,9.66-.85,3.7-2.6,7.19-3.91,10.79a11.5,11.5,0,0,0-.25,1.88c-.55,3-1.09,6-1.69,9.05a1.6,1.6,0,0,1-.76,1c-2.49.81-4.86,2.6-7.7,1.08a3,3,0,0,0-1.84-.36c-2.31.43-4-1.07-5.72-2S80.3,519.21,80.21,517Z" transform="translate(-80.21 -63.85)"/></g><path class="cls-3" d="M128.92,526.77c-2.12-.33-4.82-.59-7.13-2.58a6.23,6.23,0,0,1-2.35-6.21c.47-2.75,1-5.5,1.58-8.22.89-4,1.83-8,2.87-11.91.7-2.68,1.64-5.29,2.44-8,.65-2.14,1.22-4.3,1.87-6.45,1.14-3.76,2.21-7.55,3.5-11.26q3-8.58,6.24-17.07c1.22-3.15,2.74-6.18,4.09-9.27,1.56-3.59,3-7.22,4.63-10.78,1.44-3.15,3-6.23,4.59-9.33,2.09-4.17,4-8.42,6.33-12.48,3.26-5.75,6.74-11.39,10.23-17,2.78-4.5,5.58-9,8.61-13.32,3.15-4.5,6.54-8.84,9.91-13.18,2.54-3.27,5.16-6.48,7.83-9.64s5.28-6.21,8.11-9.14c5.18-5.35,10.34-10.74,15.81-15.8,7.41-6.84,15-13.44,22.69-20s15.94-12.06,24.26-17.58c7.42-4.92,15-9.55,22.65-14.14q9.09-5.47,18.45-10.51c4.86-2.64,9.86-5,14.85-7.43s9.91-4.64,14.9-6.88,9.94-4.45,15-6.55c3.38-1.42,6.85-2.63,10.26-4,3.09-1.2,6.15-2.48,9.26-3.64,2.68-1,5.41-1.89,8.11-2.84,1.43-.5,2.84-1.08,4.29-1.54,4.26-1.38,8.51-2.77,12.8-4.05s8.46-2.36,12.68-3.58c2.41-.7,4.77-1.53,7.17-2.24,2.65-.79,5.33-1.47,8-2.27,2.47-.74,4.91-1.6,7.37-2.38,2.05-.64,4.09-1.31,6.16-1.85,2.6-.68,5.25-1.14,7.83-1.87s4.87-1.71,7.33-2.48,5-1.44,7.48-2.17c4.46-1.32,8.91-2.69,13.38-4,2.76-.79,5.57-1.4,8.32-2.17s5.29-1.6,7.93-2.41c2.05-.62,4.11-1.26,6.17-1.86,3.6-1.05,7.2-2.12,10.83-3.1,2.68-.72,5.41-1.25,8.09-2,1.89-.51,3.75-1.16,5.61-1.76,3.06-1,6.13-2,9.17-3,3.9-1.32,7.77-2.71,11.66-4,3.47-1.19,7-2.35,10.43-3.54,2.44-.84,4.86-1.74,7.31-2.56,1.61-.54,3.26-.94,4.87-1.48,5.18-1.72,10.35-3.49,15.52-5.23,4.65-1.56,9.36-3,13.94-4.69s8.73-3.69,13.12-5.47c3.2-1.31,6.5-2.39,9.69-3.74,2.48-1.05,4.83-2.39,7.28-3.53,3-1.4,6.06-2.66,9-4.08,3.23-1.54,6.41-3.18,9.59-4.82,2.78-1.43,5.56-2.85,8.27-4.4,4.83-2.75,9.67-5.51,14.41-8.42s9.1-5.79,13.59-8.77c2.25-1.49,4.29-3.28,6.56-4.73,5.62-3.57,11.31-7,17-10.51a16.76,16.76,0,0,1,8.08-2.59c4.13-.16,8.05.78,10.76,4.33,1.24,1.63,1.15,2.4-.28,3.74a68.6,68.6,0,0,1-11.31,9.11c-3.68,2.23-7,5.07-10.56,7.49-4.7,3.19-9.42,6.33-14.26,9.29-5.26,3.21-10.63,6.25-16,9.25s-11,6.07-16.58,8.91c-4.45,2.27-9,4.31-13.58,6.38-5.45,2.46-10.89,4.94-16.41,7.23-3.4,1.41-6.95,2.43-10.41,3.69-2.09.77-4.12,1.71-6.19,2.52-1.58.62-3.17,1.21-4.79,1.73-3.57,1.17-7.17,2.21-10.72,3.43-3.8,1.3-7.54,2.8-11.34,4.11-2.46.85-5,1.48-7.46,2.29-2,.66-4,1.44-6,2.18-.42.15-.81.36-1.23.49-3,1-5.93,1.91-8.9,2.82-2.39.74-4.79,1.41-7.17,2.14-1.63.49-3.23,1.06-4.85,1.57-4.47,1.37-8.93,2.78-13.42,4.08-2.57.75-5.2,1.31-7.79,2-2.41.65-4.81,1.36-7.2,2.09s-4.57,1.53-6.88,2.19c-3.52,1-7.07,1.88-10.61,2.81-2.86.75-5.75,1.38-8.58,2.25-4,1.22-8,2.64-12,3.91-2.31.74-4.66,1.32-7,2-2.82.82-5.63,1.68-8.46,2.51s-5.52,1.55-8.28,2.36c-2.48.73-4.94,1.53-7.42,2.25s-5.15,1.44-7.72,2.19c-2.14.62-4.28,1.24-6.4,1.92-4,1.29-8,2.73-12,3.91-2.75.8-5.61,1.21-8.39,1.92-2,.51-3.92,1.22-5.88,1.85-4.34,1.39-8.71,2.71-13,4.2-2.19.75-4.25,1.85-6.41,2.72-2.64,1.08-5.34,2-8,3.12-3.56,1.48-7.08,3.06-10.62,4.56-3.71,1.58-7.48,3-11.13,4.72q-9.78,4.5-19.43,9.24c-6.53,3.19-13.07,6.38-19.46,9.83-4.66,2.51-9.13,5.4-13.63,8.2-6,3.74-12.09,7.41-18,11.38-8.3,5.61-16.59,11.25-24.58,17.27-5.7,4.29-11,9.08-16.31,13.9-6.68,6.11-13.25,12.37-19.64,18.79-4.45,4.47-8.65,9.21-12.7,14.05-4.58,5.47-9,11.06-13.26,16.8-4.06,5.51-7.91,11.18-11.6,16.94-2.94,4.6-5.52,9.44-8.21,14.2-3,5.28-6,10.52-8.77,15.93-2.4,4.76-4.37,9.74-6.54,14.63-1.44,3.25-2.95,6.47-4.32,9.75-.82,2-1.43,4-2.14,6q-1,2.77-2,5.55c-1.35,3.74-2.67,7.49-4.06,11.22-.81,2.16-1.75,4.26-2.56,6.41-.63,1.66-1.16,3.37-1.74,5-1,2.94-2.09,5.87-3.07,8.83-1.18,3.58-2.22,7.2-3.47,10.75q-2.37,6.72-5,13.36C133.58,526.91,131.48,526.76,128.92,526.77Z" transform="translate(-80.21 -63.85)"/></svg>